<mxfile host="app.diagrams.net" modified="2023-05-14T14:26:58.877Z" agent="Mozilla/5.0 (Windows NT 10.0; Win64; x64) AppleWebKit/537.36 (KHTML, like Gecko) Chrome/113.0.0.0 Safari/537.36" etag="fylPMl-FVmsoAbUe4Z7t" version="21.3.0" type="github">
  <diagram name="Page-1" id="IipF9BrK3oz4NHCb0A7x">
    <mxGraphModel dx="1191" dy="669" grid="1" gridSize="10" guides="1" tooltips="1" connect="1" arrows="1" fold="1" page="1" pageScale="1" pageWidth="850" pageHeight="1100" math="0" shadow="0">
      <root>
        <mxCell id="0" />
        <mxCell id="1" parent="0" />
        <mxCell id="wwjGMXczgYaugwBGCqrG-3" style="edgeStyle=orthogonalEdgeStyle;rounded=0;orthogonalLoop=1;jettySize=auto;html=1;exitX=0;exitY=0.5;exitDx=0;exitDy=0;strokeColor=default;endArrow=none;endFill=0;" edge="1" parent="1" source="wwjGMXczgYaugwBGCqrG-1" target="wwjGMXczgYaugwBGCqrG-2">
          <mxGeometry relative="1" as="geometry" />
        </mxCell>
        <mxCell id="wwjGMXczgYaugwBGCqrG-1" value="user" style="rounded=1;whiteSpace=wrap;html=1;" vertex="1" parent="1">
          <mxGeometry x="360" y="320" width="120" height="60" as="geometry" />
        </mxCell>
        <mxCell id="wwjGMXczgYaugwBGCqrG-2" value="id" style="ellipse;whiteSpace=wrap;html=1;" vertex="1" parent="1">
          <mxGeometry x="150" y="310" width="120" height="80" as="geometry" />
        </mxCell>
        <mxCell id="wwjGMXczgYaugwBGCqrG-5" value="" style="ellipse;whiteSpace=wrap;html=1;" vertex="1" parent="1">
          <mxGeometry x="365" y="170" width="120" height="80" as="geometry" />
        </mxCell>
      </root>
    </mxGraphModel>
  </diagram>
</mxfile>
